<svg width="380" height="380" viewBox="0 0 380 380" fill="none" xmlns="http://www.w3.org/2000/svg">
<circle cx="190" cy="190" r="190" fill="#9287FF"/>
<mask id="mask0_65_1440" style="mask-type:alpha" maskUnits="userSpaceOnUse" x="0" y="0" width="380" height="380">
<circle cx="190" cy="190" r="190" fill="#FFEDEF"/>
</mask>
<g mask="url(#mask0_65_1440)">
<g clip-path="url(#clip0_65_1440)">
<path d="M244 362.5C229.6 342.5 218.333 303.834 217 284.5L148.5 255L120 362.5H244Z" fill="#F9C9B6" stroke="black" stroke-width="4"/>
<mask id="mask1_65_1440" style="mask-type:alpha" maskUnits="userSpaceOnUse" x="120" y="255" width="124" height="118">
<path d="M244 372.5C229.6 352.5 218.333 303.834 217 284.5L148.5 255L120 372.5H244Z" fill="#C8988A"/>
</mask>
<g mask="url(#mask1_65_1440)">
<g style="mix-blend-mode:multiply">
<ellipse cx="214" cy="253" rx="59" ry="54" fill="black"/>
</g>
</g>
<mask id="path-6-inside-1_65_1440" fill="white">
<path fill-rule="evenodd" clip-rule="evenodd" d="M273.886 193.917C273.859 193.801 273.831 193.685 273.803 193.569C273.776 193.454 273.748 193.338 273.719 193.222L257.323 124.786C257.306 124.718 257.29 124.65 257.274 124.582C257.258 124.514 257.242 124.446 257.225 124.379L257.152 124.075L257.151 124.076C246.933 82.6308 205.156 57.1472 163.582 67.1081C122.008 77.0689 96.3155 118.717 105.988 160.293L105.986 160.293L122.978 231.211L122.992 231.208C133.594 272.112 175.062 297.149 216.329 287.261C257.597 277.374 283.216 236.264 274.131 194.996L274.144 194.993L273.886 193.917Z"/>
</mask>
<path fill-rule="evenodd" clip-rule="evenodd" d="M273.886 193.917C273.859 193.801 273.831 193.685 273.803 193.569C273.776 193.454 273.748 193.338 273.719 193.222L257.323 124.786C257.306 124.718 257.29 124.65 257.274 124.582C257.258 124.514 257.242 124.446 257.225 124.379L257.152 124.075L257.151 124.076C246.933 82.6308 205.156 57.1472 163.582 67.1081C122.008 77.0689 96.3155 118.717 105.988 160.293L105.986 160.293L122.978 231.211L122.992 231.208C133.594 272.112 175.062 297.149 216.329 287.261C257.597 277.374 283.216 236.264 274.131 194.996L274.144 194.993L273.886 193.917Z" fill="#F9C9B6"/>
<path d="M273.886 193.917L269.992 194.831L269.994 194.84L269.996 194.849L273.886 193.917ZM273.719 193.222L269.83 194.154L269.832 194.163L269.834 194.172L273.719 193.222ZM257.323 124.786L253.43 125.708L253.433 125.718L257.323 124.786ZM257.225 124.379L253.335 125.311L253.338 125.321L257.225 124.379ZM257.152 124.075L261.042 123.143L260.111 119.255L256.222 120.185L257.152 124.075ZM257.151 124.076L253.267 125.033L254.218 128.89L258.081 127.966L257.151 124.076ZM163.582 67.1081L162.65 63.2182L162.65 63.2182L163.582 67.1081ZM105.988 160.293L106.922 164.182L110.784 163.255L109.884 159.386L105.988 160.293ZM105.986 160.293L105.052 156.404L101.165 157.337L102.096 161.225L105.986 160.293ZM122.978 231.211L119.088 232.143L120.02 236.035L123.911 235.101L122.978 231.211ZM122.992 231.208L126.864 230.204L125.878 226.401L122.058 227.318L122.992 231.208ZM216.329 287.261L215.397 283.371L215.397 283.371L216.329 287.261ZM274.131 194.996L273.2 191.106L269.381 192.021L270.225 195.856L274.131 194.996ZM274.144 194.993L275.075 198.883L278.966 197.951L278.034 194.061L274.144 194.993ZM277.78 193.002C277.751 192.881 277.722 192.759 277.693 192.637L269.914 194.502C269.94 194.611 269.966 194.721 269.992 194.831L277.78 193.002ZM277.693 192.637C277.664 192.516 277.635 192.395 277.605 192.273L269.834 194.172C269.861 194.281 269.887 194.391 269.914 194.502L277.693 192.637ZM253.433 125.718L269.83 194.154L277.609 192.29L261.212 123.854L253.433 125.718ZM261.215 123.863C261.198 123.793 261.181 123.722 261.164 123.65L253.384 125.514C253.4 125.578 253.415 125.643 253.43 125.708L261.215 123.863ZM261.164 123.65C261.147 123.579 261.13 123.508 261.113 123.436L253.338 125.321C253.353 125.385 253.369 125.449 253.384 125.514L261.164 123.65ZM253.262 125.007L253.335 125.311L261.115 123.447L261.042 123.143L253.262 125.007ZM258.081 127.966L258.083 127.966L256.222 120.185L256.221 120.185L258.081 127.966ZM261.035 123.118C250.291 79.5398 206.364 52.7447 162.65 63.2182L164.514 70.998C203.949 61.5498 243.575 85.7219 253.267 125.033L261.035 123.118ZM162.65 63.2182C118.936 73.6917 91.9216 117.484 102.092 161.199L109.884 159.386C100.709 119.951 125.08 80.4461 164.514 70.998L162.65 63.2182ZM106.92 164.183L106.922 164.182L105.054 156.403L105.052 156.404L106.92 164.183ZM126.868 230.279L109.876 159.361L102.096 161.225L119.088 232.143L126.868 230.279ZM122.058 227.318L122.044 227.322L123.911 235.101L123.925 235.097L122.058 227.318ZM119.12 232.211C130.268 275.223 173.869 301.548 217.261 291.151L215.397 283.371C176.254 292.75 136.92 269.002 126.864 230.204L119.12 232.211ZM217.261 291.151C260.653 280.755 287.591 237.53 278.038 194.136L270.225 195.856C278.842 234.999 254.541 273.993 215.397 283.371L217.261 291.151ZM273.212 191.103L273.2 191.106L275.063 198.886L275.075 198.883L273.212 191.103ZM269.996 194.849L270.254 195.925L278.034 194.061L277.776 192.985L269.996 194.849Z" fill="black" mask="url(#path-6-inside-1_65_1440)"/>
</g>
<path d="M219 132.214C224.667 129.548 238 127.114 246 138.714" stroke="black" stroke-width="4" stroke-linecap="round"/>
<path d="M143.579 157.521C145.65 151.61 153.261 140.396 167.142 142.822" stroke="black" stroke-width="4" stroke-linecap="round"/>
<path fill-rule="evenodd" clip-rule="evenodd" d="M157.287 173.073C157.401 173.886 158.434 174.067 159.009 173.481C161.474 170.965 165.264 169.116 169.663 168.594C172.258 168.285 174.754 168.475 176.979 169.066C177.733 169.266 178.474 168.629 178.21 167.895C176.545 163.25 171.845 160.196 166.736 160.803C160.794 161.509 156.55 166.898 157.256 172.839C157.266 172.917 157.276 172.995 157.287 173.073Z" fill="black"/>
<path fill-rule="evenodd" clip-rule="evenodd" d="M221.385 163.073C221.498 163.886 222.531 164.067 223.106 163.482C225.549 160.996 229.298 159.17 233.648 158.653C236.213 158.348 238.68 158.535 240.88 159.117C241.634 159.316 242.375 158.679 242.111 157.946C240.456 153.352 235.804 150.335 230.748 150.935C224.862 151.635 220.658 156.973 221.357 162.859C221.366 162.93 221.375 163.002 221.385 163.073Z" fill="black"/>
<path d="M200.277 178.926C205.497 176.94 214.601 177.54 214.04 187.639C213.542 196.615 204.333 198.397 201.4 196.304" stroke="black" stroke-width="4"/>
<path d="M189.771 359.578C189.771 359.578 189.771 359.578 191 358L189.771 359.578L191.493 360.919L192.679 359.087L192.679 359.087L192.681 359.084L192.69 359.07L192.731 359.007C192.742 358.99 192.755 358.971 192.769 358.949C192.803 358.897 192.847 358.832 192.9 358.753C193.05 358.528 193.275 358.195 193.57 357.77C194.158 356.919 195.023 355.702 196.118 354.246C198.312 351.332 201.416 347.482 205.071 343.718C208.737 339.945 212.898 336.318 217.198 333.793C221.514 331.26 225.777 329.949 229.733 330.483C272.171 336.205 303.402 355.002 323.674 383.001H50.3745C66.6742 353.659 89.8579 334.983 127.445 326.413C129.046 326.047 131.224 326.158 133.947 326.791C136.642 327.418 139.715 328.519 143.028 329.976C149.655 332.889 157.052 337.136 164.004 341.536C170.945 345.93 177.39 350.443 182.104 353.86C184.459 355.567 186.379 357 187.709 358.004C188.374 358.506 188.891 358.901 189.241 359.169C189.416 359.304 189.55 359.407 189.639 359.475L189.739 359.553L189.764 359.572L189.77 359.577L189.771 359.578Z" fill="#6BD9E9" stroke="black" stroke-width="4"/>
<path d="M115.613 329.085L120.779 309.853C120.989 309.074 121.996 308.854 122.54 309.449C137.403 325.714 156.16 325.076 162.385 324.33C163.23 324.228 163.892 325.153 163.495 325.906L150.338 350.859C150.136 351.241 149.724 351.452 149.3 351.364C145.352 350.541 125.677 345.732 115.729 329.867C115.583 329.635 115.542 329.35 115.613 329.085Z" fill="#D2EFF3" stroke="black" stroke-width="4"/>
<path d="M246.195 328.981L234.615 309.499C234.222 308.837 233.253 308.848 232.834 309.494C227.097 318.33 217.202 322.4 213.742 323.602C213.12 323.819 212.835 324.558 213.171 325.125L226.673 347.94C226.875 348.281 227.255 348.465 227.636 348.357C229.771 347.749 237.096 344.685 246.182 330.021C246.378 329.706 246.385 329.3 246.195 328.981Z" fill="#D2EFF3" stroke="black" stroke-width="4"/>
<path d="M172.5 346.5L163.5 325L156.5 340L172.5 346.5Z" fill="black" stroke="black" stroke-width="4" stroke-linejoin="round"/>
<path d="M204 345.5L213 324L220 339L204 345.5Z" fill="black" stroke="black" stroke-width="4" stroke-linejoin="round"/>
<path d="M133.5 306L121.5 309L131.5 315.5L133.5 306Z" fill="black" stroke="black" stroke-width="4" stroke-linejoin="round"/>
<path d="M223 306L234 309L227 315.5L223 306Z" fill="black" stroke="black" stroke-width="4" stroke-linejoin="round"/>
<path d="M267.177 76.3965C258.855 116.294 160.499 121.896 140.677 121.896C88.6548 127.823 113.625 190.262 123.177 221.396C115.677 222.396 116.677 231.396 87.6772 159.896C64.4772 102.696 130.183 67.8337 178.999 55.9995C227.815 44.1653 246.499 27.502 246.499 27.502C267.177 36 272.116 52.7185 267.177 76.3965Z" fill="#3F1307"/>
<path d="M262.134 149.947L246.316 96.5069L256.354 87.3644C267.109 124.452 267.601 145.988 262.134 149.947Z" fill="#3F1307"/>
<path d="M137 195C131.4 167.8 117.333 172.667 108 174L98 130L138.584 121.506C139.336 121.266 140.141 121.095 141 121L138.584 121.506C120.433 127.299 132.956 173.796 148 193L137 195Z" fill="#3F1307"/>
<path d="M81.9887 92.3632C90.8341 87.9091 101.281 90.4873 105.398 92.3331L93.6273 107.213C96.6625 102.357 87.1329 95.2897 81.9887 92.3632Z" fill="#3F1307"/>
<path d="M67 109.5C78.6 102.7 89.8333 105 94 107L89.5 122.5C88.3 114.1 74 110.333 67 109.5Z" fill="#3F1307"/>
<path d="M126 172.249V171.13L125.046 170.545C121.312 168.254 116.772 167 112.08 167C106.44 167 101.159 168.747 97.3977 172.295C93.5942 175.882 91.5421 181.127 92.0869 187.666C92.6179 194.038 94.7569 198.727 98.3047 201.843C98.0134 202.842 97.9273 203.92 98.0624 205.053C98.4517 208.322 100.104 210.677 102.657 212.128C105.091 213.511 108.206 214 111.524 214C117.003 214 121.808 211.053 125.466 207.111L126 206.536V205.751V172.249Z" stroke="black" stroke-width="4"/>
<path fill-rule="evenodd" clip-rule="evenodd" d="M131.972 187.984C132.043 187.332 132.08 186.67 132.08 186C132.08 175.783 122.573 169 112.08 169C101.587 169 93.0801 175.5 94.08 187.5C94.6364 194.177 97.0258 198.572 100.731 201.217C100.142 202.241 99.8848 203.444 100.048 204.817C100.677 210.098 105.186 212 111.524 212C122.629 212 131.416 197.953 131.972 187.984Z" fill="#F9C9B6"/>
<path d="M116.5 177.5C112.5 175.667 103.7 174.7 100.5 185.5" stroke="#171921" stroke-width="4"/>
<path d="M106 178C108.167 179.833 112.3 185.5 111.5 193.5" stroke="#171921" stroke-width="4"/>
<path d="M171.5 223.5C174 240.5 202.5 248.5 228.5 229" stroke="black" stroke-width="4"/>
</g>
<defs>
<clipPath id="clip0_65_1440">
<rect width="200" height="320" fill="white" transform="translate(90 43)"/>
</clipPath>
</defs>
</svg>
